/* XPM */
static char *_1974_5a6f32844e4fbbda559dfb2711899680316c7ef024e3880e474c1610298fff7c[] = {
/* columns rows colors chars-per-pixel */
"64 48 244 2 ",
"   c #301B0A",
".  c #3A2B15",
"X  c #3A2C26",
"o  c #3B3327",
"O  c #3C3A32",
"+  c #51330F",
"@  c #462D12",
"#  c #493619",
"$  c #533B13",
"%  c #683A05",
"&  c #703E05",
"*  c #623917",
"=  c #473929",
"-  c #563A2A",
";  c #443A36",
":  c #513932",
">  c #683928",
",  c #783729",
"<  c #723D37",
"1  c #364934",
"2  c #5A461C",
"3  c #764708",
"4  c #7C4C0C",
"5  c #7D5206",
"6  c #7E500E",
"7  c #684616",
"8  c #6B4E15",
"9  c #734B16",
"0  c #774D17",
"q  c #7C5214",
"w  c #7B531B",
"e  c #78561B",
"r  c #7A641B",
"t  c #58492A",
"y  c #5B5229",
"u  c #494335",
"i  c #4C4A31",
"p  c #4A453C",
"a  c #4C493E",
"s  c #554837",
"d  c #5B4C3D",
"f  c #5A5338",
"g  c #684926",
"h  c #6A5727",
"j  c #775723",
"k  c #654537",
"l  c #764D36",
"z  c #655738",
"x  c #506038",
"c  c #796826",
"v  c #736728",
"b  c #6A6235",
"n  c #746935",
"m  c #283A48",
"M  c #2E3E4D",
"N  c #374545",
"B  c #2A544D",
"V  c #35584B",
"C  c #2A4357",
"Z  c #315553",
"A  c #256559",
"S  c #3A6255",
"D  c #1D796E",
"F  c #266B62",
"G  c #4D4B42",
"H  c #4A4945",
"J  c #524D45",
"K  c #5A4D42",
"L  c #544F49",
"P  c #495648",
"I  c #555646",
"U  c #5C5242",
"Y  c #55524B",
"T  c #5A554D",
"R  c #5D594D",
"E  c #4A5A58",
"W  c #565A57",
"Q  c #5E5A51",
"!  c #615545",
"~  c #645747",
"^  c #645B4B",
"/  c #765045",
"(  c #775849",
")  c #625D54",
"_  c #685A56",
"`  c #526257",
"'  c #70654A",
"]  c #666056",
"[  c #6B6254",
"{  c #656159",
"}  c #6B655B",
"|  c #6D685C",
" . c #776754",
".. c #726B5E",
"X. c #4C5D6A",
"o. c #6F5E61",
"O. c #576867",
"+. c #4E6973",
"@. c #5A7777",
"#. c #696966",
"$. c #736D63",
"%. c #766B67",
"&. c #757165",
"*. c #7B7367",
"=. c #77756B",
"-. c #7B7469",
";. c #6A7175",
":. c #797774",
">. c #853727",
",. c #804D08",
"<. c #835406",
"1. c #84540B",
"2. c #885909",
"3. c #8D5C0C",
"4. c #915E0B",
"5. c #825514",
"6. c #855A14",
"7. c #8C5B12",
"8. c #83561A",
"9. c #855B1C",
"0. c #8A5D1C",
"q. c #925E12",
"w. c #93630D",
"e. c #98680D",
"r. c #8D6113",
"t. c #84671D",
"y. c #8D621C",
"u. c #946413",
"i. c #966915",
"p. c #996816",
"a. c #93641B",
"s. c #946B1D",
"d. c #9A6C1B",
"f. c #8A7317",
"g. c #9D711B",
"h. c #977918",
"j. c #A2731D",
"k. c #A77A1D",
"l. c #824E2D",
"z. c #855B23",
"x. c #8A5E23",
"c. c #855D29",
"v. c #8D6423",
"b. c #8A6826",
"n. c #946B23",
"m. c #936827",
"M. c #9A6E22",
"N. c #946C2C",
"B. c #897427",
"V. c #9D7423",
"C. c #987629",
"Z. c #9B732C",
"A. c #8C6933",
"S. c #946D33",
"D. c #9A7433",
"F. c #9B7737",
"G. c #A27523",
"H. c #A37925",
"J. c #A67A29",
"K. c #A47C2A",
"L. c #A57A36",
"P. c #A37C34",
"I. c #A37D3A",
"U. c #876F4E",
"Y. c #86754D",
"T. c #9C7C45",
"R. c #857353",
"E. c #84775A",
"W. c #A47E41",
"Q. c #847A6A",
"!. c #847D73",
"~. c #877C72",
"^. c #6E807F",
"/. c #B4941C",
"(. c #9E8620",
"). c #AA8427",
"_. c #AC832B",
"`. c #B2892C",
"'. c #B19629",
"]. c #A98539",
"[. c #B28B37",
"{. c #B9933A",
"}. c #CFAA09",
"|. c #D1AC0A",
" X c #D9B505",
".X c #DBB806",
"XX c #D6B30B",
"oX c #DAB608",
"OX c #C8A713",
"+X c #9C8544",
"@X c #998659",
"#X c #AA8443",
"$X c #A78748",
"%X c #B18D49",
"&X c #B99649",
"*X c #AC8E54",
"=X c #BC9B54",
"-X c #BA9958",
";X c #BEA159",
":X c #97896F",
">X c #8B8276",
",X c #87847D",
"<X c #8C847A",
"1X c #8A867C",
"2X c #918476",
"3X c #91867B",
"4X c #948A7D",
"5X c #9C8C7A",
"6X c #AB9877",
"7X c #BBA165",
"8X c #C19C49",
"9X c #C19E56",
"0X c #C5A24C",
"qX c #C3A355",
"wX c #C2A35A",
"eX c #C8A85F",
"rX c #C6A865",
"tX c #CBAB6C",
"yX c #C6AC77",
"uX c #CBAC72",
"iX c #CCB37A",
"pX c #D1B774",
"aX c #4C6480",
"sX c #727E88",
"dX c #568286",
"fX c #6A8F93",
"gX c #868685",
"hX c #8D8881",
"jX c #8E8E8E",
"kX c #958C80",
"lX c #998E81",
"zX c #9C9184",
"xX c #9F958A",
"cX c #8E8F90",
"vX c #8F9091",
"bX c #A19587",
"nX c #A29689",
"mX c #A69B8D",
"MX c #A89C8E",
"NX c #A89D90",
"BX c #CFB78F",
"VX c #D2BA88",
"CX c #DAC38A",
"ZX c #DFCDA8",
/* pixels */
"y.s.s.i.v.0.d.r.9.0 r.r.2.5.2.r.9.0.3 q.5.2.5.2.w.9.8.4 0.5.q.5.7.0.x.5.7.m.q.n.0.G.N.v.9.Z.Z.G.Z.K.].D.N.F.].].%XF.;X*X].F.*XiX",
"V.n.z.V.J.8.8.0 z.7.0.8.K.N.6.q 8.0.8.0.0.J.0.8.8.w y.0.c.q.J.z.0.0.x.0.x.x.M.Z.9.m.c.m.D.S.S.&XN.D.F.A.I.T.F.-X%XD.*XT.T.*XF.rX",
"6 D.T.9.p.5.u.w.1.4 7.,.q.a.7.u.q.2.7.q.4 p.7.u.q.e.q.0.7.7.j.7.p.d.p.q.p.q.p.M.p.G.J.M.Z.L.J.8XJ.%X-X-X].%X#X%X=X$X7X7X*XS.r tX",
"5.S.VX#X<.<.<.2.<.<.<.<.<.<.<.2.2.<.,.1.1.2.1.<.4.3.3.4.2.3.3.3.4.u.4.q.q.q.u.u.e.g.j.d.j.J.J._.J.[.{.`._.{.{.&X{.{.rX&Xe e e 7X",
"G.m.BXVX2.5 5 3 3 3 & & % % % % % % % % & & 3 % & & & 3 & 3 3 3 3 3 ,.3 4 ,.,.,.<.1.2.2.2.w.w.w.p.p.i.d.s.g.g.H.H.).).K.6.e 8 tX",
").L.yXiX2.F.0.5.6 5.5.9.9.0.9.0.x.0.0.5.8.q 8.8.5.0.8.0.0.0.0.0.0.0.0.x.0.a.v.v.v.n.m.m.n.N.D.P.I.].I.].].].$XI.].#XC.H.n.C.8 tX",
"6.N.rXwX5 ;XY.a a J U 2X5X5X5X5X5X5XQ.^ ! ! [ ~ ~ ~ ~ | ~ U U U  .U U d U ^ d U J ! [ d K K _ 2X5X5X5X5X5X>X~ U J z n.V.9._.7 *X",
"d.L.VX-X5 ;XE.Y T Y Y 3XMXMXMXmXMXNXbX-.Q J T ] K L J ) T G J G | Y J G L T G a a $.Y H G | kXNXNXMXMXMXNX$.L Y Y K s.V.9 w e +X",
"i.].CX;X1.9XE.Y Y Y Y 3XmXnXnXMXMXMXMX5X| Q R } ) T I ) } I T I $.Q Y Y ) Q Y Y ] | T Q ) <XMXMXMXMXnXnXNX| Y Y Y K n.V.q e 0 $X",
"g.F.tXwX5 9XU.Y T Y Y 3XMX5X} kXNXMXMXMX4X{ G Y ) G G a ) J a a } L G a T H H G } G G Y >XMXMXMXNXlX$.3XNX| Y Y Y ! s.V.r.9.7 ;X",
"g.V.tXwX5 =XR.Y Y Y Y <XMX4XL R ~.nXMXMXMX>XQ J Q T H J ] T G G | Y G J T H a ) R H Y ~.mXMXMXNX3X) G <XMX} Y Y Y K M.d.q 9 8 [.",
"3 Z.pX9X6 -XR.Y Y Y Y <XMX4XY L Y ~.MXNXMXmX=.G G T p p Y I ; u ) p ; a G ; u ) u ; -.MXMXMXNX~.Y L Y >XMX} Y Y Y ! n.d.6.C.9.%X",
"7.x.pXwX5 -XU.L T Y Y 2XNX1XY Y L &.MXnXMXMXzX} | | | } | | | } | | } | | } } ..| | xXMXMXzXlX-.L Y Y >XmX} P Y Y U s.i.q q 7 $X",
"`.m.iXrX5 9XR.L Y Y Y >XMX4XY T L &.zX] 3XnXzX$.-.-.-.Q.*.*.-.*.*.*.*.*.*.Q.*.*.-.$.zXMX>XT Q.-.Y Y Y >XmX} L Y Y d s.i.6.n.9 %X",
"k.Z.rXwX5 =XR.Y T I Y >XMX3XY Y Y =.zXY Q lXlX&.*.*.*.*.*.*.-.&...$.*.*.*.*.*.*.*.*.zX4XI L !.-.Y Y Y >XmX{ Y Y Y U s.i.s._.8 #X",
"0.N.rX&X5 9XY.Y Y Y Y >XMX3XY T Y -.lXT T -.] ..*.*.*.*.*.-.] T Q ^ ) %.*.*.*.*.-.} ) -.T L !.-.J Y Y <XmX{ Y I Y U s.u.4 C.7 $X",
"k.].CX9X<.qXU.Y Y T Y >XNX1XY T Y -.lXT Q %.J ) -.*.*.*.*.] ) o.#.} ) ) *.*.*.*.-.] L -.L L !.-.I T Y >XmX] Y Y Y U s.i.3 e 9.#X",
"p.L.rX9X5 =XU.L Y Y Y >XNX3XY Y L -.lXT T %.J ] -.-.*.*.$.Y T T L Y Y G | -.*.*.-._ L &.Y L !.*.Y Y Y 1XmX{ Y I Y U d.i.6.b.8 F.",
"k.L.=XwX1.wXU.Y Y Y L <XNXhXT Y L =.lXT T %.J ] $.T R ] $.T G H H L H Q Q R R T [ R L &.Y L !.*.Y Y Y 1XMX{ Y P Y U n.g.6.t.7 &X",
"u.L.iXwX1.;XU.L J O . } nXQ.L L L =.lXT Q -.L ] | E @.#.&.| O.@.@.@.W } O.@.O.1 . X J =.Y Y !.-.H : u !.=.J a r z f s.g.5.y.9.].",
",.D.tX8X2.qXU.Y u   $ n *.l i u y Q.zXT T -.L _ #.O.fXdX&.| @.@.i I ` | @.fXdXi 2 . u =.T L !.$.# @ # { R y i h.c f s.g.8.N.9.].",
"M.c.iX9X2.rXR.Y o . t.v z v t b f.E.>Xu J &.G R z J F +.&.] O.a e r P | O.+.X.x B.# o $.T Y >X*.@ $ u W b y i v y s s.g.6.8.7 $X",
"`.L.yXrX<.rXR.H O o $ f h h t f b b z @ i =.U t r v G V &.} J g r 8 u } ` a p t c r # K Y L =.[ 2 r i P b i s c z t s.H.n.C.9 [.",
"g.F.uX9X2.rXU.M O O X d j h = t ' U # # y ' c t v r f C &.] # + 8 2 - I a y h s t t.l l a P S P (.2 O u O.J a R U t s.H.s._.7 #X",
"G.W.iX9X2.tX .C C m O p e e - h c y t 2 # s b.g h (.y B &._ @ @ 2 @ # U f B.(.2 g e > < s B F S x B N o ; ; O I J t M.).4 n.9 T.",
"k.9XCX9X4.rX| C C m m : , > h h y r h v t H W y h f.n Y $._ > * 2 s t h B.XXXXr h g g d P A A E Z D V g : = o i G t M._.q e j F.",
"j.W.9X8X4.rXR.M m m M : >., r r e B.O.( ( X.E f y ` }  .%.~ >., T _ > b OX XXXb.< $ h I E 1 1 V A D B y y y o R L = s.`.a.9.8 %X",
"J.L.uXrXw.tX+X1 C M m ; >.g f.e 6.z aXX.T X.+._ ) O.^ ( ( < , l ;.o., A.XX XOXb d k g - d B A S F D B . = # 2 ^ -.k g.`.9.e 9 =X",
"q.%XVX9X4.eX .Z C C M m : g r.q 3.f aXO.n O.+.R y f y h l , < ;.sXo., /..X.X/.` P t > > s A A V B D B o : X s %.$.z V.`.9.n.s.&X",
"q.S.pX8Xe.tX+X{ X.O N M W : @ . # R +.O.^ W E f f U y f n l ) E W ..l.OX X.X(.1 f n : : u V I ! I V 1 O J p K { Q z M.`.6.w e %X",
"_.S.VXtX4.tXF. .~.t H T } i s T R s ) >X$.=.{ J | $.] ] ' *.&.{ W !.+XXX XoX(.t v  .s d =.R ! z ^ f z %.-.] T L T ! g.{.9.b.8 &X",
"{.#XBXtXw.tX@X..>X&.$.!.!...-.>X>XQ.>X>XQ.4X4XQ.>X>X<X<X>X>X>X>XhX~.).oXoX|.'./.XX/.Y.1X4X3X>X>X<X>X2XlX3X<X>X3XkX .V.{.n.C.9 =X",
"Z.W.VXwXe.tX6XMXnXzX5XnXmXnXlXkXmXmXmXnX3XmXmXmXMXmXmXmXMX4X4XNXNXQ./.XXoXXX|.XX XXX'.@X5XNXMXMXMXMXbXzXMXnXnXMXMXE.V.{.6.K.7 $X",
"J.9XBXrXe.tX6XMXzXkX4XmXMXbX~.kXmXMXMXMXxXxXmXmXmXmXmXmXMX3X4XMXMXE.OX X XoXoX X XXXOX/.'.:XmXMXmXmXmXmXMXbXzXMXlX .H.{.0 w j $X",
"H.eXVX9Xe.tX6XMXlXlXnXMXMXnXzXzXmXmXmXmXkXzXNXmXmXMXMXMXMXlX4XMXMX@XXXoX X X X X X X X XXX].xXMXmXmXmXmXMXbXzXMXkXR.V.{.9.e j #X",
"J.#XuXrXe.tX6XMX5X4XMXMXmXMXxXxXmXmXMXMXlXnXmXmXmXmXMXMXMXnXbXMXMX$XXXoX X X X X X X X X.X'.5XNXMXmXmXmXMXMXMXMX3XQ.J.&X0.w 7 =X",
"j.%XBXtXp.tX6XMXbX5XmXmXmXxXxXxXmXxXNXxXbXbXbXmXmXMXMXxXxXxXnXbXxX]. X X X X X X X X X XOX'.3XzXzXnXbXzXzXzXbXzX>XR.).0X8.0 e wX",
"5.%XVX9Xp.uX:X~.Q.o.( ~ ! / ( !.~.!.:.;.#.#.#.#.$._ | -./ / / < s V. X X X X X X X X X|./.n S S S S ` ^ p s K Y $.*.K.&X6.v.s.;X",
"q.S.ZXeXj.tX5XgXgX!.%.Q Y _ Q.jXjXhXgXsXfX3XgXhX^.T #.hXQ./ / : s /. X X X X X X X X XOX@X=.P P ` =.fX,X%.%.gXgX=.Q._.=X8.9 7 -X",
"{.W.BXiXk.pX5XjXcXcXcXjXcXjXjXjXcXjXjXjXjXjXjXvXvXjXjXjXjXcXgX!.:./. X X X X X X X X XOX>XcXjXjXjXjXlXjXcXjXjXjX:. ._.0Xn.b.e tX",
"[.%XBXtXk.uX6XjXcXcXcXjXjXjXcXcXcXcXjXjXjXjXcXjXvXvXvXvXvXvXjXcX:XOX.X.XoX X X.X X X X'.gXcXcXcXjXjXjXvXjXvXvXvX:.f C.qXn.C.* rX",
"M.W.BXtXJ.uX:X~.,X<X,XgX,X,X,X,XgX!.,X,X<X,XhX~.!.<XhX!.!.hXgX~.F.OX}.}.}.}.}.}.}.|.OXY.1XhXhXhXhXhXhX1X1X1X4X3X!.[ _.qX0 n.2 *X",
"{.VXZXeXJ.W.x.0.9.9.0.9.9.9.z.9.z.z.8.x.z.z.c.z.c.z.z.z.c.z.x.9.0.p.u.i.p.i.d.i.d.d.n.N.N.N.S.S.D.D.D.F.F.F.F.F.F.D.P.qXe 7 t.$X",
"G.9XBXtXk.d.d.j.G.G.G.H.G.J.J.G.G.J.J.J.J.J.J.j.G.j.p.p.p.q.q.q.q.3.7.7.3.q.u.q.p.d.d.d.G.H.J.K._.].].[.[.&X&X&X=X8X0XqXz.9 9 -X",
"_.#XBX*X,.1.3.1.1.u.7.8.3.7.u.q.7.w.p.u.q.u.u.p.q.u.u.u.7.3.3.r.4.3.q.u.u.r.a.u.d.d.d.g.H.G.K.G.J._.J._.[.[.[.[.[.{.[.V.0 7 7 yX",
"m.%XU.7.1.1.5.4 3.3.<.3 u.4 4 9.6 4.3.4 5.p.4 5.8.1.4.q.4 y.y.1.0.8.a.a.y.8.K.0.v.N.0.L.P.v.N.D.b.Z.m.D.$XI.N.$XS.D.F.b.F.j C.pX",
"5.A.7 0.v.w 0 0.e 9 0 9 r.v.w 4 v.9 0 0 z.a.z.0 8.c.0 q j v.y.z.w x.c.w z.j H.b.v.x.S.j z.A.A.].A.A.F.S.c.A.A.*X$XA.T.@XA.A.A.yX",
"0 a.4 u.r.p.7.9 9.d.d.5.g.a.j.4 8.0.k.M.a.G.G.p.3 x.q.j.0.u.i.V.7.q c.p.G.8.G.m.L.5.c.A._.I.b.].#X#Xc.A.$XwX+X;X;X7X$XA.+XiX7X7X"
};
