/* XPM */
static char *_241_39280daf827c76f532e1e0359fb7caf32b11ea1a3250490f019787ebcf2432d3[] = {
/* columns rows colors chars-per-pixel */
"64 48 250 2 ",
"   c #693A04",
".  c #6A3E0C",
"X  c #6F4203",
"o  c #774807",
"O  c #7C4D0D",
"+  c #7D5206",
"@  c #7E500E",
"#  c #694416",
"$  c #734B16",
"%  c #774D17",
"&  c #7A5318",
"*  c #7B531B",
"=  c #7B5523",
"-  c #835406",
";  c #84550B",
":  c #885909",
">  c #8D5C0C",
",  c #915E0C",
"<  c #825513",
"1  c #865A15",
"2  c #8C5B13",
"3  c #82561A",
"4  c #855B1B",
"5  c #8A5E1C",
"6  c #925E13",
"7  c #8F600D",
"8  c #93630D",
"9  c #98680D",
"0  c #8D6113",
"q  c #85611E",
"w  c #8D621C",
"e  c #946413",
"r  c #956915",
"t  c #966618",
"y  c #946A1C",
"u  c #9A6B1A",
"i  c #9A7018",
"p  c #9D711B",
"a  c #A1731E",
"s  c #A77A1D",
"d  c #845B24",
"f  c #885D26",
"g  c #8C5835",
"h  c #8D5A39",
"j  c #8C6523",
"k  c #8C6727",
"l  c #9C6C24",
"z  c #946B28",
"x  c #9D7324",
"c  c #9B722B",
"v  c #9B7729",
"b  c #8C6934",
"n  c #946C33",
"m  c #8E753A",
"M  c #997637",
"N  c #A06F27",
"B  c #A27423",
"V  c #A47925",
"C  c #A57829",
"Z  c #A47C2B",
"A  c #A66E34",
"S  c #A67A37",
"D  c #C13B53",
"F  c #936F41",
"G  c #9D7C45",
"H  c #AB7D43",
"J  c #B3546F",
"K  c #B6706F",
"L  c #D57859",
"P  c #DF6A72",
"I  c #67B624",
"U  c #79B333",
"Y  c #7BD605",
"T  c #73CD12",
"R  c #33907E",
"E  c #59A85D",
"W  c #75B156",
"Q  c #52996C",
"!  c #6EB077",
"~  c #55CF7C",
"^  c #68CE6C",
"/  c #AB822A",
"(  c #B2892C",
")  c #AA8437",
"_  c #B28B37",
"`  c #AA953C",
"'  c #B9933A",
"]  c #9AB422",
"[  c #94B633",
"{  c #D6961B",
"}  c #EE9C0E",
"|  c #FAA203",
" . c #D79D26",
".. c #D4912F",
"X. c #86D40E",
"o. c #83E502",
"O. c #A8D023",
"+. c #C3DD0A",
"@. c #CAEE02",
"#. c #9A8645",
"$. c #A88646",
"%. c #B78B49",
"&. c #B99649",
"*. c #AE8F52",
"=. c #BB9857",
"-. c #BC9B54",
";. c #91AE4D",
":. c #ACAA55",
">. c #BEA159",
",. c #B0916C",
"<. c #97A364",
"1. c #B3A56B",
"2. c #C5914C",
"3. c #C19B56",
"4. c #E88244",
"5. c #C5A24C",
"6. c #C3A355",
"7. c #C3A35B",
"8. c #C5836C",
"9. c #C6A865",
"0. c #CBAB6C",
"q. c #C9AC75",
"w. c #CCB379",
"e. c #D1B774",
"r. c #97D660",
"t. c #E5CE7C",
"y. c #3F52B8",
"u. c #5D50B7",
"i. c #586DAE",
"p. c #6B69B3",
"a. c #1878D1",
"s. c #0379E8",
"d. c #007BF2",
"f. c #4D73C9",
"g. c #756ECF",
"h. c #B42BAB",
"j. c #B536B6",
"k. c #D20DB4",
"l. c #E603BC",
"z. c #CC34A9",
"x. c #B0758F",
"c. c #A44AA2",
"v. c #AE72B3",
"b. c #D96192",
"n. c #B336C7",
"m. c #DB05C7",
"M. c #D115C8",
"N. c #E801C9",
"B. c #F000C1",
"V. c #E901D2",
"C. c #CF2CCB",
"Z. c #8A55CD",
"A. c #B64CC2",
"S. c #9475D3",
"D. c #A973C7",
"F. c #A86CD2",
"G. c #9B6FEA",
"H. c #A46FE4",
"J. c #A26CEA",
"K. c #A174E9",
"L. c #A56EF6",
"P. c #A66FFF",
"I. c #A57BFD",
"U. c #EC51C1",
"Y. c #25A1A6",
"T. c #2BABB7",
"R. c #50A09D",
"E. c #71B69B",
"W. c #6790AE",
"Q. c #4AB6AE",
"!. c #65B5A9",
"~. c #2DC8AE",
"^. c #20D9A7",
"/. c #0BF3A9",
"(. c #02FDB2",
"). c #4ECA89",
"_. c #6CC6AC",
"`. c #2592C4",
"'. c #0DAECA",
"]. c #04BBD5",
"[. c #27B6C9",
"{. c #5A96CD",
"}. c #04C2DC",
"|. c #13C3D6",
" X c #00C4E2",
".X c #8F9597",
"XX c #AB958F",
"oX c #90A18F",
"OX c #B3AE93",
"+X c #9086B3",
"@X c #B789BB",
"#X c #C98E91",
"$X c #CFB78F",
"%X c #D3BA88",
"&X c #DAB79C",
"*X c #DE87BD",
"=X c #DD88BB",
"-X c #D294B1",
";X c #E089BD",
":X c #90C995",
">X c #B0D096",
",X c #97C8B1",
"<X c #94D7BC",
"1X c #D4D08E",
"2X c #EBD582",
"3X c #ECD987",
"4X c #F1DC86",
"5X c #F0D78C",
"6X c #EAD897",
"7X c #EDE491",
"8X c #FBEC92",
"9X c #F7E49F",
"0X c #FFE99C",
"qX c #FFF095",
"wX c #E3D7A0",
"eX c #9897CF",
"rX c #A587C9",
"tX c #B78AC9",
"yX c #99B7D2",
"uX c #B386E8",
"iX c #B483EE",
"pX c #B383F2",
"aX c #D48ECC",
"sX c #E891D1",
"dX c #F393D3",
"fX c #F798D8",
"gX c #C8A5D3",
"hX c #FEA5DE",
"jX c #E99CE5",
"kX c #F595E7",
"lX c #FE96ED",
"zX c #FF97F0",
"xX c #FAA9E0",
"cX c #F5A0ED",
"vX c #F6A1F0",
"bX c #8FCCCE",
"nX c #94DADB",
"mX c #91E7CF",
"MX c #94EED8",
"NX c #97F2D9",
"BX c #A8DEE8",
"VX c #97E5E1",
"CX c #9BE7EF",
"ZX c #94F6E5",
"AX c #97FFEC",
"SX c #98FFEC",
"DX c #9AF4F0",
"FX c #A6ECE9",
"GX c #A8EFEC",
"HX c #A8F1ED",
/* pixels */
"w r y y y 5 i 0 4 % > e : 1 1 7 1 5 o > 1 : ; ; 0 4 3 O 5 < 2 3 2 w f < 2 z 6 j 6 N z k f c N N c C _ n n v ) ) %.S >.%.#.M =.q.",
"x z d x A 3 3 % 4 5 5 3 v z & 1 * 5 4 f 5 Z f 1 1 3 5 f f 6 Z 4 5 1 d w w f B c 3 z f k M z M &.n M M b M $.G *.*.M *.F M *.m 9.",
"O M #.3 t < e 8 ; < 2 o 6 t > e , ; 2 2 O t 6 , 6 9 6 w 6 2 p 2 t u t 6 t 6 t N t N C l c S S &.Z %.=.-.S %.$.*.-.$.q.w.*.M q 0.",
"@ z %X%.- - - > - + - - - - - : : - - : ; : - ; , : > > : > > > , 9 , 6 6 8 6 8 9 a a u a s s ( / _ ' ( ( ' _ &.' ' >.` & & & 1.",
"B k $X%X@ + + X X X X                       X         o   - o o     - . o - - - < - - > > > 7 e e r t u u i x x v V / v & & $ 9.",
"/ S q.%X: M z u l u l l l l l j x B l l N l l v N B N c N N A N A A A A A A A A S ) S S H ) %.%.%.%.%.%.2.&.3.2.3.-.v / z v $ 0.",
"2 z >.>.+ 7.t.3X3X3X4X3X4X3X2X4X8X7X3X1X4X4X7X3X4X4X4X4X4X4X4X5XdXdXsXdXdXdXdXdXdXdXfXfXsXdXsXfXfXfXfXfXfXfXfXfXfX-Xv p & ) # *.",
"p S %X>.+ >.3XqXqXqXqXqXqX0XqX7X>X1XQ._.1X>X9XqX8XqXqX0XqXqXqX0XhXlXzXzXlXzXzXzXzXsX;X-X[ 1.-X-XlXlXlXlXzXzXzXzXlX=Xv v o * * #.",
"r S 1X>.+ 7.4XqXqXqXqXqXqXqXqX>X|.|. X X}.|.>XqXqXqXqX8XqX8XqX0XhXlXlXlXlXlXlXkXkX1.X.X.o.o.o.O.sXlXlXlXlXlXlXlXlX*Xc x @ & & $.",
"p C 0.7.+ -.3XqXqXqXqXqXqX7XE.[. X X X X}.].[.>XqXqXqXqXqXqXqX0XhXlXlXlXlXlXzXsX;.X.o.o.o.o.X.X.[ sXlXlXlXkXlXlXlX*Xc p 0 * # >.",
"i c q.7.+ -.2XqXqXqXqXqXqX7X!.}. X^.).).).^ ! 7XqXqXqXqXqXqXqX0XhXlXlXlXzXzXzXsX[ o.o.] 2.' L L ,.kXlXlXlXlXlXlXlX*Xc u @ & # ` ",
"o c e.>.+ -.3XqXqXqXqXqXqX7XT.}. X).r.^ ~ ).r.0XqXqXqXqXqXqXqX0XhXlXlXlXzXzXzX#XT o.X.%.P L _ S -XzXlXlXlXlXlXlXzX*XB y 1 z q %.",
"2 f %X5.+ -.t.qXqXqXqXqXqX8X>X|.].'.T.~.}.'.T.7XqXqXqXqXqXqXqX0XhXlXlXlXlXlXlXfX1.Y Y ] ] X.Y T 1.kXlXzXlXlXlXlXzX=Xz r @ & # ) ",
"( z q.9.+ 6.2XqXqXqXqXqXqXqX7XE.Y.Y.].].Y.:X7X8XqXqXqXqXqXqXqX0XhXlXlXlXlXlXlXlXaX1.U T Y T ;.-XsXzXlXlXlXlXlXlXzX=Xx r q z $ &.",
"s c 0.3.+ >.t.qXqXqXqXqXqXqXqXqX>XW.{.[.W.!.wXqXqXqXqXqXqX8XqX0XhXlXlXlXlXlXlXlXlXlX,.W U U W 1.kXlXlXzXlXlXlXzXzX=Xl e y / # $.",
"w k 9.&.: 5.t.qXqXqXqXqXqXqXqXqXE.'.R.i.i.'._.8XqXqXqX8XqXqXqX0XhXlXlXlXlXlXlXlXlXkX;.Y E E E T #XlXlXlXlXlXlXzXzX=Xc r @ v # #.",
"V _ 1X2.+ 7.2XqXqXqXqXqXqXqXqXqX:X}.].'.'.'.Q.8XqXqXqXqXqXqXqX0XhXlXlXlXlXlXlXlXzXkX:.Y Y T I T OXzXzXzXlXlXzXlXzX=Xl r O * * $.",
"u S 9.6.+ 3.2XqXqXqXqXqXqXqXqXqX2Xp.i.u.Z.h.z.&XqXqXqXqXqXqXqX0XhXlXlXlXlXlXlXlXzXkX@XQ E R R Y.f.jXlXzXlXlXlXlXzX;XB r 1 j $ S ",
"s S =.7.- 6.2XqXqXqXqXqXqXqXqX8Xb.l.l.B.l.l.l.z.5XqXqXqXqXqXqX0XhXlXlXlXlXlXlXlXzXjXf.s.s.s.d.d.s.g.kXlXlXlXlXlXzX;Xx i > q # *.",
"6 C w.7.; 7.2XqXqXqXqXqXqXqXqX4X8.z.k.l.l.l.k.b.%X8XqXqXqXqXqX0XhXlXlXlXlXlXlXlXlXaXp.a.s.s.s.`.a.g.sXlXlXlXlXlXzX=Xx u < q q ) ",
"O M 0.&.: 7.2XqXqXqXqXqXqXqXqXqX6XR.i.XXx.a.XX5XqXqXqXqXqXqX0X0XhXlXlXlXlXlXlXlXlXlX@XU Q S.Q E @XkXlXlXlXlXlXlXzX;Xx p 1 c 4 ) ",
"l f w.6.: 7.2XqXqXqXqXqXqXqXqXqX1X'.T.7XE.'.W.6XqXqXqXqXqXqXqX0XhXlXkXlXlXlXlXlXlXlXXXT ;.jX;.T XXkXzXlXlXlXlXlXzX;Xc p 1 * # $.",
"( C q.9.- 9.2XqXqXqXqXqXqXqXqXqXOXy.y.OXOXp.i.XXqXqXqXqXqXqXqX0XhXlXzXlXlXlXlXlXkXcX.XE E aXoXE.! aXzXzXlXlXlXlXzX;XC p y M $ ` ",
"l S q.3.: 9.5X9X9X9X9X9X9X9X9X9X9X&X-XwX6X9XwX9X9X9X9X9X9X9X0X9XxXcXcXcXcXcXcXcXvXvXjXgXgXjXjXkXjXjXvXcXjXvXcXcXvX=Xx V y Z . $.",
"x ) w.-., 9.-XI.uXiXiXiXiXiXiXpXpXpXuXuXpXpXpXiXiXiXiXiXiXiXiXiXBXHXGXGXGXGXGXGXHXHXHXGXBXFXHXHXGXGXGXGXGXGXGXGXHX<Xv / O j $ #.",
"/ 3.1X-., 7.tXP.L.P.P.P.P.P.P.J.F.F.8.8.D.D.L.P.P.P.P.P.P.P.P.P.CXAXAXAXAXAXAXSXAXnXnXyXA.rXbXyXZXAXSXAXAXSXAXAXSX<Xx ( 1 & 4 M ",
"a $.2.-., 9.tXP.P.P.P.P.P.P.P.v.} } | | } } v.P.P.P.P.P.P.P.P.I.CXAXSXSXSXSXSXSXAXD.m.m.V.V.N.C.nXSXSXSXSXSXSXSXSX<Xx ( y = # %.",
"/ S q.7., 9.tXP.P.P.P.P.P.P.K  .| | | | | } ..v.P.P.P.P.P.P.P.I.CXAXSXSXSXAXAXnXA.M.V.V.V.V.m.M.A.nXSXSXSXSXSXSXSXbXv ( q & $ =.",
"6 $.%X6., 9.tXP.P.P.P.P.P.L.8.| | ..P P P b.x.F.P.P.P.P.P.P.P.I.CXSXSXSXSXSXSXMXj.V.V.n.Z.Z.g.g.+XZXSXSXSXSXSXSXAX<Xv ( 1 z y ' ",
"6 n q.5.8 0.tXP.P.P.P.P.P.H.2.| | L U.U.b.P v.L.P.P.P.P.P.P.P.I.CXSXSXSXSXSXDXyXM.V.m.g.{.g.Z.g.bXDXSXSXAXSXSXSXSX<Xv ( 1 * $ *.",
"( b $X9.8 9.tXP.P.P.P.P.P.P.v.} } { L 4.| } L H.P.P.P.P.P.P.P.I.CXSXSXSXAXAXAXZXrXm.M.M.C.M.N.M.D.ZXSXSXAXAXSXSXSXbX/ ' q j $ -.",
"..$.$X0.8 0.tXL.P.P.P.P.P.P.L.K 2.{ | | ..v.F.L.P.P.P.P.P.P.P.I.CXSXSXSXSXAXAXAXbXZ.h.M.m.m.c.yXVXSXSXSXSXAXSXSXSX<Xv ' i v # >.",
"l H %X7.8 0.tXP.P.P.P.P.P.P.P.P.D.&.:. .<.,.H.P.P.P.P.P.P.P.P.I.CXSXSXSXSXSXAXSXSXAX+Xc.z.z.x.tXDXSXSXSXAXAXSXAXSX<Xv &.q v # *.",
"Z 2.1X7.8 0.tXP.P.P.P.P.P.P.P.P.x.} [ ;.;. .K P.P.P.P.P.P.P.P.I.CXSXSXSXSXSXAXAXSXZXA.k.c.K J k.yXDXSXSXSXSXAXSXSX<X/ ' O & = $.",
"C 0.%X7.9 q.tXP.P.P.P.P.P.P.P.P.x.} } { { } ,.P.P.P.P.P.P.P.P.I.CXSXSXSXSXSXSXAXSXZXD.N.l.k.k.k.eXSXSXSXSXSXSXSXSX<XZ ' 4 * * $.",
"C H q.9.9 q.tXP.P.P.P.P.P.P.P.P.G.W ;.W ^ ~ ^.pXP.P.P.P.P.P.P.I.CXSXSXSXSXSXSXSXSXSX,XJ P H %.' r.NXSXSXSXSXSXSXSX<X/ &.q & # -.",
"a %.$X9.9 0.tXP.P.P.P.P.P.P.P.P.{./.(.(.(.(.(.~.K.P.P.P.P.P.P.I.FXSXSXSXSXSXSXSXSXMXO.+.@.@.@.@.@.r.ZXAXAXAXSXSXAX<X/ 5.3 & * >.",
"< %.%X7.a q.tXP.P.P.P.P.P.P.P.G.{.^././././.^.Q.S.P.P.P.P.P.P.I.CXSXSXSXSXSXSXSXAXmXr.O.@.@.@.+.O.r.mXSXSXSXSXSXAX<X/ 5.1 j y >.",
"t g &X9.s 0.tXP.P.P.P.P.P.P.P.P.G.*.[ W.R.] .XG.P.P.P.P.P.P.P.I.CXSXSXSXSXSXSXSXSXSXbXh.K :X*.z.,XZXAXSXSXSXSXSXAX<X) -.& $ # >.",
"' G 1Xw.V e.tXP.P.P.P.P.P.P.P.P.F. ...H.K { ,.K.P.P.P.P.P.P.P.I.CXSXZXSXSXSXSXSXSXSX+Xk.c.MXj.k.@XNXAXAXSXSXSXSXAX<X/ >.y k = 9.",
"( *.$Xq.V e.tXP.P.P.P.P.P.P.P.P.+XU [ +X.XW W v.P.P.P.P.P.P.P.I.CXSXSXSXSXSXSXSXSXAXXXD J <Xx.K K <XSXSXSXAXAXAXAX<X/ 6.z v . 1.",
"l H $X9./ 0.@XJ.J.H.J.J.J.J.J.J.G.S.S.S.G.G.G.S.J.J.J.J.J.J.J.K.nXMXMXMXMXMXMXNXMXNXmX,X,XmXmXmXmXMXNXNXNXNXNXNXNX,X) 6.@ k # *.",
"' e.wX9./ S g g g g g g g g g g g g h h g h g g h h h h g h h g b n m m m m m m G m m G #.G #.#.G #.$.#.#.#.#.*.#.#./ 5.$ $ = #.",
"B =.&X0.s u u a a B B x V V V V V V V C V V x l B u u e e , 6 > 2 > > > , , e e e t u u a B B Z S / ) _ _ &.&.&.-.-.>.>.k $ $ >.",
") H $X*.+ ; ; ; 2 6 > 1 > 2 e 6 0 e r e r e 0 r 6 8 9 e 2 > 2 > 8 2 2 e e 0 t e y i u u V V Z V Z / / / ) _ _ _ ) ' ) c $ # # 1.",
"w *.F 5 < ; < @ 2 > - o e O O 3 ; > > o @ l O < 3 < 6 , @ w w ; 5 < e l 5 3 c 4 j z j Z Z j z M l z z M $.S z $.n M M k #.= v e.",
"@ b # 0 j * % 5 * $ % $ w 4 3 O f $ % & * y d O 3 f % & = w w d & f d * d = C k k f n = d b b ) m n M b d b m *.$.m G $.k b b w.",
"& w O e e e 2 $ 3 u u < p u p O 4 5 s l t B B u o f 6 p 5 r t l 2 * f t B 3 B l S < d b S S k ) H S d m $.7.G =.-.9.*.b #.w.1.1."
};
