/* XPM */
static char *_6025_7c4c8a814be302d2c9d3f832f50e239bc5f4eea040b2adaa71d19f18cc64077a[] = {
/* columns rows colors chars-per-pixel */
"64 48 244 2 ",
"   c #030106",
".  c #050309",
"X  c #09040A",
"o  c #05080C",
"O  c #0D0B0D",
"+  c #130A0D",
"@  c #12120F",
"#  c #050D12",
"$  c #0D0E11",
"%  c #140D12",
"&  c #190E13",
"*  c #0B1314",
"=  c #0C1617",
"-  c #141313",
";  c #1A1A15",
":  c #171718",
">  c #1C141A",
",  c #1C1C1C",
"<  c #211A18",
"1  c #221B1C",
"2  c #16211B",
"3  c #27261B",
"4  c #33281C",
"5  c #36361E",
"6  c #1A1C22",
"7  c #2B1D23",
"8  c #281C24",
"9  c #1A2324",
"0  c #242323",
"q  c #2A2323",
"w  c #2D2929",
"e  c #322B25",
"r  c #332728",
"t  c #34252A",
"y  c #39272B",
"u  c #3D2A2E",
"i  c #38342B",
"p  c #292F35",
"a  c #342E35",
"s  c #3D2B31",
"d  c #3C3233",
"f  c #383637",
"g  c #3A3A33",
"h  c #483915",
"j  c #6A3A05",
"k  c #6D3E09",
"l  c #402D2C",
"z  c #48382A",
"x  c #412E32",
"c  c #433234",
"v  c #43353A",
"b  c #463A38",
"n  c #4B3B3D",
"m  c #3D4333",
"M  c #6D4004",
"N  c #774707",
"B  c #7C4D0D",
"V  c #7E5108",
"C  c #694416",
"Z  c #744B15",
"A  c #794E16",
"S  c #744C19",
"D  c #7A5318",
"F  c #7B531B",
"G  c #564D27",
"H  c #56452C",
"J  c #43443A",
"K  c #54483B",
"L  c #6B5431",
"P  c #7B6733",
"I  c #1B3259",
"U  c #32344C",
"Y  c #2A3758",
"T  c #2D3866",
"R  c #493C40",
"E  c #503F42",
"W  c #31474A",
"Q  c #324676",
"!  c #4A4546",
"~  c #524344",
"^  c #574C4A",
"/  c #57534A",
"(  c #4E5255",
")  c #5C5457",
"_  c #62524B",
"`  c #665958",
"'  c #74654D",
"]  c #696557",
"[  c #565870",
"{  c #576169",
"}  c #696464",
"|  c #766B68",
" . c #78726C",
".. c #787075",
"X. c #814F07",
"o. c #835406",
"O. c #84540B",
"+. c #885909",
"@. c #8D5C0C",
"#. c #915E0C",
"$. c #835514",
"%. c #865A15",
"&. c #8C5B13",
"*. c #82561A",
"=. c #855B1B",
"-. c #8A5D1C",
";. c #925E12",
":. c #8F600D",
">. c #93620C",
",. c #99690E",
"<. c #8D6113",
"1. c #85611E",
"2. c #8D621C",
"3. c #946413",
"4. c #976717",
"5. c #946A1C",
"6. c #9A6C1A",
"7. c #9A7018",
"8. c #9E711C",
"9. c #A5761D",
"0. c #845B24",
"q. c #8A5E22",
"w. c #855D29",
"e. c #8C6423",
"r. c #8A6629",
"t. c #956B25",
"y. c #946B2B",
"u. c #85712E",
"i. c #9E7423",
"p. c #98772A",
"a. c #9B732C",
"s. c #8C6934",
"d. c #946C34",
"f. c #8C743A",
"g. c #997636",
"h. c #9C763C",
"j. c #A27523",
"k. c #A47926",
"l. c #A67A29",
"z. c #A47B2A",
"x. c #A37B37",
"c. c #8B7946",
"v. c #89724C",
"b. c #9B7A45",
"n. c #A47E42",
"m. c #85776A",
"M. c #877C76",
"N. c #9B8431",
"B. c #AB8229",
"V. c #B2892C",
"C. c #AA8439",
"Z. c #B28B37",
"A. c #B09831",
"S. c #B89539",
"D. c #BDA432",
"F. c #CEB337",
"G. c #DCC239",
"H. c #E9CC35",
"J. c #F5D738",
"K. c #FDE033",
"L. c #988650",
"P. c #A78547",
"I. c #AA8443",
"U. c #AC8C4D",
"Y. c #B18D49",
"T. c #B9964A",
"R. c #A98C54",
"E. c #B08E51",
"W. c #AE9256",
"Q. c #BC9B53",
"!. c #B89858",
"~. c #BAA748",
"^. c #BEA159",
"/. c #8A827C",
"(. c #918D74",
"). c #A4956D",
"_. c #B99C65",
"`. c #BAA166",
"'. c #B4A979",
"]. c #C19D49",
"[. c #C29D53",
"{. c #C8AA4A",
"}. c #C3A557",
"|. c #C6A968",
" X c #C6AB75",
".X c #CAB376",
"XX c #CCB37A",
"oX c #D0B770",
"OX c #D8C453",
"+X c #E6D04D",
"@X c #D0C57F",
"#X c #1C4C92",
"$X c #264E8D",
"%X c #1C5CB6",
"&X c #2563B4",
"*X c #55748A",
"=X c #1D63C5",
"-X c #1D65CA",
";X c #2063C4",
":X c #708B95",
">X c #5699B0",
",X c #71B6CD",
"<X c #6CCEF5",
"1X c #888483",
"2X c #948C88",
"3X c #99928C",
"4X c #878995",
"5X c #9C9693",
"6X c #A19989",
"7X c #A39B96",
"8X c #A9A49A",
"9X c #B6AA92",
"0X c #ACA5A2",
"qX c #B2ACA7",
"wX c #B9B4A8",
"eX c #BCB9B5",
"rX c #CFB78F",
"tX c #D2BA88",
"yX c #C3BCA9",
"uX c #C4BEB7",
"iX c #D6C591",
"pX c #CBC7B9",
"aX c #D3CDB3",
"sX c #E6D5AB",
"dX c #CBC8C3",
"fX c #D1CEC8",
"gX c #D8D5CC",
"hX c #DCDAD6",
"jX c #E2DED7",
"kX c #E6E4D6",
"lX c #EEECD6",
"zX c #E4E4DC",
"xX c #EDECDD",
"cX c #E8E7E5",
"vX c #EDEDE2",
"bX c #F1EFE6",
"nX c #EFF2E4",
"mX c #F2F3E5",
"MX c #F4F5EA",
"NX c #F6F8EA",
"BX c #F9FBEC",
"VX c #F5F4F2",
"CX c #FCFDF2",
"ZX c #FCFCFB",
/* pixels */
"2.5.7.5.5.-.4.<.=.Z &.<.+.%.+.@.*.-.N 3.$.+.$.O.@.=.*.B 2.O.&.$.&.2.q.*.%.t.&.t.-.j.t.t.-.y.a.j.d.j.C.d.y.g.C.C.Y.N.Q.E.C.h.T..X",
"i.t.F i.x.*.=.A =.-.-.*.p.a.%.F F -.%.q.-.l.q.%.*.$.2.q.q.-.l.0.-.-.-.q.q.q.9.a.-.e.w.r.a.y.a.T.y.x.h.d.h.P.h.T.E.g.U.b.b.R.f.`.",
"B x.L.*.4.O.3.>.O.O.&.X.;.5.&.3.;.@.&.&.B 6.&.#.;.,.;.-.&.&.9.&.4.6.4.;.4.#.4.t.6.j.l.t.a.x.l.T.z.Y.!.Q.C.U.I.Y.Q.Y.|. XR.g.1.oX",
"B y.tXY.X.o.o.+.o.X.o.X.X.o.o.+.+.o.o.o.O.o.+.+.#.@.@.#.@.@.@.:.#.,.#.;.;.;.3.3.,.8.9.7.j.l.l.V.B.V.T.V.B.S.S.T.Z.T.^.Y.D D S `.",
"j.r.rXtXO.V V N N N M M j j j j j j j j j k k j k k k M N N N N N N N N X.X.X.X.V o.+.+.@.:.>.3.3.4.5.5.7.7.i.i.i.B.B.B.%.F S `.",
"B.x. XXXo.h.=.$.A $.$.*.$.$.*.$.*.-.*.-.-.-.-.<.-.-.q.q.-.-.u.u.r.t.t.r.t.e.y.y.y.y.a.y.a.p.g.g.x.C.h.C.P.C.Y.P.U.Y.p.p.t.p.C oX",
"&.t._.}.o.W.i 3 e q q q e e s w w w e e u i m J z c i z b ( :X,X,X,X,X:Xm m d d g g m m J m m g J m m m g g g g g J L.8.1.N.C R.",
"8.x.tX}.V W.3     X $   ; 0 , * . X . X O O ; @ % - ; ; 3 ( ,X<X<X<X<XW 9 9 = 0 p 6 2 m 9 9 = = = = 2 9 * # o o o 9 f.i.N D D P.",
"7.x.iX^.o.U.< - ; X X   o O 2 i @ o . . X O 3 5 ; @ 3 3 = m >X<X<X<X>X9 : 2 2 0 m 9 = J : 2 9 2 # # # # = = = # # 2 c.i.B D S U.",
"8.z. X}.V Y.; * / J o X o O ; 3 @ o   . . . o ; @ O @ $ @ 2 m >X,X*XW = - * 3 K q # = m # # = 2 : # * # # = # = 6 2 f.8.2.=.C Q.",
",.a. X}.V U.< . i ^ O X O - ; 3 e @ . X . # X ; 3 i g # 2 2 2 ( Q 2 = = : # 8 v.' z H ! # # # * = * # # = 9 * 9 p 6 c.6.V Z C Z.",
"N a.oX~.V W.; 3 / e       : 3 $ 0 -   O / ! ; i m K H 2 I Y Y R m 2 9 2 ; 4 K v.b.P H ] i # o # # * # p U Y , = $ q h.4.D p.1.Y.",
"&.q.tX[.V U.; O , X   . X * 0 O ; a % o ]  .; ~ m. .J I %X;X;X$XW ! ! w a K ' P L z z ' P w 0 2 f e 0 ( ( ( w U { ` f.7.V F C P.",
"V.y. X|.V E.3       . . . : ~ & & b < 1 8 q q n 6X(.} #X;X;X;X;X$XU d R ` | _ n H i i ( K w 2 4 9 d 4 ' v.R._ ! ) c f.3.2.t.Z T.",
"j.a.|.}.V U.; . . . . . . > ^ ; v m.M.m.| | m.M.6XM.} $X;X;X-X-X&XY d s c x y ` ! U } 1Xa - 6 5 G L 4 L v.L ] a R ^ h.3.5.N.C Y.",
";.y.}.].o.Y.< . . . . . . ; / ~ J ) /.wXqX| _ ~ ^ }  .W #X;X;X-X-X$Xs c l y t f w 8 d b 3 : z D.K.J.N.e 4 O w $ > f c.4.B p.C N.",
"k.Z.iX[.o.E.;   . . . o . % | 3X] / ( 2X| / c r t t y u T %X=X-X-X=XU x x u x 7 w 1 8 f a w R.G.K.K.H.h + + X X   : f.3.B F 0.I.",
"6.x.|.[.X.U.<   . . $ & 6 b 6XwXwXpXqXyX8X7X/.u t t y l p Q =X=X-X-XT x x u x u t & , > 6 t m.F.H.H.OXN.n 7 + .   6 f.4.%.e.S p.",
"9.x.[.}.+.T.4 9 y d v v a ~ 2X6Xv.aXqX9XqX8X] y u x l l y Y %X=X-X=X#Xv R u u u s r t t t y c r.A.F.@X'.2X2X..E 0 w f.4.%.1.C Y.",
";.x.XX}.+.E./ ^ ^ ^ ^ ~ E ! } } 1X0X2X/.} f s s u x y s y a $X=X;X&X] x ^ u u x x s s u s s y L D.G.{.Q.9XdXuX0X3X1XR.4.$.e.1.C.",
"B x.|.Q.+.!./ ^ ~ ~ E E E R w w a f R R e r u l u u u u s s T =X&Xm.`.K m.x u u u s l s u u u P F.~.|._.| M.3X5X5X7XW.7.%.t.1.I.",
"6.q..X}.+.!.^ ~ R U R U R f a 8 1 8 8 7 u u x s x u s l y s a #X*XF.OXN.E x u u u u x u x u ) uXaXgX9X^ E ^ ) ..5XqX_.8.%.F C C.",
"V.x. X|.+.!.K R R R x U w 6 8 8 u s x l s s u u l s l s s s s Y L.G.N.G ) E y u u s u u u x 0XVXVXZXjX| u x E ` } 1XW.k.e.p.S Z.",
"6.h. X^.+._.K b R x 7 > > 8 8 t s u y x u l u s s u s u u s s t ' ).n e M.| y l s l s u u ^ gXcXzXZXcX0Xv l x v ^ } L.k.5.B.C P.",
"j.I..X].@._.K a q > > 7 q 7 7 7 s s s u l u u u s u s u s l y & # w l y  .2Xl l s u l l y } cXjXcXZXcXfX` u l u s E L.l.O.e.S b.",
"k.}.tX[.@.[.l 8 7 t y y y y s s u u u u l J H z s u u s u u y % X X + t } 7Xu y s l s s l 2XbXgXVXVXhXhX} y s u s R b.l.$.F F x.",
"j.I.[.[.#._.l y u u y u u y u s u y u L A.F.G.u.u s l s s s y + X X O y R E u l u u u l l 5XcXgXjXZXcXhXeXv u u s E b.V.2.1.C Y.",
"B.x.|.|.#._.z y y y L s.S.g.z s u u u p.J.J.J.A.y s u u u u y % X   O y x y l y u u u l E hXZXjXdXcXcXdXjX) y u u R b.V.1.F S Q.",
";.I.tX[.#.}.K E n H F.J.J.J.N.l n ` } v.G.J.J.G.z x u ~ _ _ f X   X X t y v E E n ~ n c 5XZXZXVXjXyXrXyXhX) y u u E b.V.%.t.t.S.",
";.d.XX].;.|.yXjXgXoXJ.+XJ.J.N./ pXvXvXkX{.J.H.@Xv.l ` gXcXcX2XX     + 1 y | gXjXkXgXfX7XVXZXZXZXVXuXiXgXcX0X~ u u n b.V.%.F S W.",
"V.h.tX|.#.|.gXCXaX}.J.K.+XOX).pXNXmXNXbX`.F.J.+X~.z 0XNXMXMX} . X   . 4 z } bXCXCXBXcXgXdXeXgXVXcXjXMXjXfXmXpX` y R b.S.<.e.S T.",
"S.n.rX|.#.|.aXqX~ L F.F.J.+XOXaXMXmXmX3XL D.G.D.u.] xXNXMX3X= . X X . r.g.^ zXCXCXBXMXcX` v uXgXzXVXgXcXhXvXMXgX| n L.S.t.p.C ^.",
"j.n.tX}.#. X' x u l L g.H.OXsXlXMXbX8Xc 4 c.c.u d wXNXNXBX/.  X X     4 H n gXCXBXCXmXaXM.| gXcXVXhXzXZXcXjXMXNXkX2XP.T.%.a.C R.",
"l.[.iX|.#._.n u s y x Y ] (.nXNXMXwXn 7 O ; ) u  .MXNXNXCXhXw   X     O t c pXCXCXBXkXM.M.uXjXcXfX1XcXZXVXhXMXBXNXxX|.S.B F F P.",
"j.|.tX}.,._.n l u _ 4X[ T [ mXNXpX~ y 7 + + q q wXCXNXNXBX8X-   + >     7 s wXCXCXCXcXqXhXVXcXgX..x qXZXZXhXMXBXNXmX.XS.=.D F P.",
"l.n. X|.,._.z l | hX:XT Q [ hXkX` l u < + 3 + , (.MXNXCXeX6   X < u &   O r 5XCXCXMXhXVXZXjX5Xv y u M.VXZXzXvXBXNXNX.XS.1.F C ^.",
"9.[.rX|.,._.n M.zXCX*XU R v.qX .u u u & 4 f.e 3XpXNXNXgXa   X % % 8 q X   & ..BXBXjXhXZXVXdX! & > > ` bXZXcXjXNXNXmX X].*.D F ^.",
"$.n.tX[.8._.6XxXCXzX[ Y ) E U u l s 7 + + 4 3 7XnXNXnX}   O w % & 8 > $     ^ kXmXdXfXhXfX2X` t 7 8 a gXcXhXdXjXmXmX.X].%.e.5.^.",
";.d.sX[.9. XaXVXcX..Y *X1XU U R l y > + & 3 2 -  .NXdX9   w v 1 y s 7 &     ; ^ dXwXwXjXuX3XpX` u s q 1XdXdXuXeXkXmX.X].D S C ^.",
"Z.n.rXtX9. XfXVXfX` ` 7X3Xa ! ~ l z z z u /. .h L.aXgX) 1 q x u u s s y ; % 8 3XMXvXfXdXgXdXMX3Xy l s v E R R [ kXmX.X{.2.u.F |.",
"Z.E.rX X9. XaXVXvXpXyXwX^ l x y u l x z ` lXjXaXrXzXNXxXuXM.x l s l u u u y u qXCXBXBXNXmXmXCXfXn l u u u u y u 2XmXXX{.t.t.k `.",
"6.n.tX|.B. XuXbXvXvXgX` y l l l y l l y 7XbXxXxXvXxXvXvXvXpXv l y l l y l l y /.mXlXlXxXvXvXxXzX} y l y l l l l b wXXX].Z t.C ).",
"Z.tXsX|.l.n.a.x.h.h.r.Z B Z Z Z Z Z Z $.d.b.n.x.b.b.x.b.h.d.A S A A S F F F F r.n.n.n.U.P.n.P.U.a.w.r.r.r.r.r.u.t.h.U.}.D C =.P.",
"l.[.rX|.9.4.6.j.9.j.j.j.j.l.l.j.k.l.l.l.l.j.j.j.8.6.4.4.;.;.;.@.&.#.&.;.;.;.;.;.;.4.6.t.i.j.l.z.l.C.C.Z.Z.T.T.T.Q.].~.}.e.S S !.",
"l.n.rXW.X.O.@.X.O.3.&.&.&.@.3.;.&.3.4.3.;.;.4.4.3.3.3.>.@.@.&.#.;.#.&.3.3.<.2.5.6.6.4.i.j.k.l.k.B.B.z.B.Z.Z.Z.Z.C.S.Z.p.S C C .X",
"t.E.v.&.@.O.$.$.&.@.O.N 3.B B -.O.#.@.X.$.6.B $.*.O.;.#.B 2.2.O.*.*.4.6.q.$.j.-.t.y.-.x.a.e.y.g.t.d.r.x.P.x.y.P.g.g.g.r.f.F t.@X",
"$.r.C -.q.*.A -.F Z A Z <.e.A A q.S $.A *.t.0.B *.w.Z A F e.q.0.*.q.w.A 0.F z.r.w.q.d.0.r.s.r.C.s.d.x.f.w.s.s.E.P.f.b.P.s.s.u. X",
"$.t.X.3.-.6.&.k *.7.6.$.6.5.8.B *.-.9.t.-.j.8.6.B q.;.8.q.4.6.j.&.A w.6.j.*.j.y.x.$.w.y.z.x.s.C.n.x.w.s.P.}.b.!.Q.|.U.s.b.XX`.`."
};
