/* XPM */
static char *_313_2e5a5276936a8b2145240efad3c2c86229b98388fd8db5ee05ba4ead4d461240[] = {
/* columns rows colors chars-per-pixel */
"64 48 256 2 ",
"   c #080709",
".  c #120F10",
"X  c #362C1A",
"o  c #070D27",
"O  c #091228",
"+  c #09132C",
"@  c #0B192D",
"#  c #161729",
"$  c #081833",
"%  c #0B1B33",
"&  c #211A20",
"*  c #1D2128",
"=  c #0D2135",
"-  c #0C2339",
";  c #162638",
":  c #2F3131",
">  c #59350A",
",  c #663C06",
"<  c #643E13",
"1  c #49362B",
"2  c #3F4C38",
"3  c #6B4206",
"4  c #754708",
"5  c #7C4D0D",
"6  c #7E5208",
"7  c #694618",
"8  c #754C16",
"9  c #7A5318",
"0  c #7B531B",
"q  c #594E29",
"w  c #484537",
"e  c #55463A",
"r  c #694C23",
"t  c #6E5131",
"y  c #755939",
"u  c #6E603B",
"i  c #0D294A",
"p  c #142D4A",
"a  c #17314E",
"s  c #0D2D54",
"d  c #0E2F59",
"f  c #112F52",
"g  c #0E315A",
"h  c #123256",
"j  c #12345B",
"k  c #1A395A",
"l  c #2D3745",
"z  c #2A3847",
"x  c #243C55",
"c  c #153B63",
"v  c #183B63",
"b  c #423E43",
"n  c #39454C",
"m  c #314755",
"M  c #364757",
"N  c #1B456C",
"B  c #2E4965",
"V  c #464646",
"C  c #574C44",
"Z  c #4B5250",
"A  c #565A57",
"S  c #665847",
"D  c #69544D",
"F  c #5C6659",
"G  c #796345",
"H  c #70694E",
"J  c #67645B",
"K  c #786B5A",
"L  c #4B5B67",
"P  c #525D64",
"I  c #546266",
"U  c #676866",
"Y  c #7B7264",
"T  c #845406",
"R  c #84540B",
"E  c #875909",
"W  c #8D5D0C",
"Q  c #915D0D",
"!  c #825513",
"~  c #865A15",
"^  c #8C5B13",
"/  c #82561A",
"(  c #855B1B",
")  c #8A5E1C",
"_  c #925E12",
"`  c #93620C",
"'  c #98680E",
"]  c #8C6213",
"[  c #8A6C13",
"{  c #88631D",
"}  c #8D621C",
"|  c #946413",
" . c #966717",
".. c #946B1C",
"X. c #9A6B1B",
"o. c #9C711B",
"O. c #A2731D",
"+. c #A77A1D",
"@. c #865C25",
"#. c #8E5833",
"$. c #A55D33",
"%. c #8C6424",
"&. c #8C6727",
"*. c #956B26",
"=. c #9D7322",
"-. c #997629",
";. c #9B732C",
":. c #8B6935",
">. c #956C33",
",. c #8A7530",
"<. c #9B7537",
"1. c #A27423",
"2. c #A57A26",
"3. c #A77A2A",
"4. c #A47C2A",
"5. c #B2732F",
"6. c #A66B38",
"7. c #A47B36",
"8. c #FA661C",
"9. c #FB741B",
"0. c #FA7B1D",
"q. c #C77837",
"w. c #D07633",
"e. c #EE752D",
"r. c #FA7823",
"t. c #8F6E4A",
"y. c #997847",
"u. c #8A785C",
"i. c #A47C43",
"p. c #B37746",
"a. c #A2615E",
"s. c #8F7D63",
"d. c #C77C64",
"f. c #928F34",
"g. c #AB8229",
"h. c #B2892C",
"j. c #AD9E2D",
"k. c #AB8438",
"l. c #B48938",
"z. c #B8933B",
"x. c #BAAB2F",
"c. c #FC871D",
"v. c #FC961E",
"b. c #D4BB1F",
"n. c #FEA21E",
"m. c #CA8A2C",
"M. c #CA922C",
"N. c #DC9229",
"B. c #C98937",
"V. c #DA883A",
"C. c #CA983B",
"Z. c #DB953C",
"A. c #FB8B23",
"S. c #FA8528",
"D. c #EB9525",
"F. c #FB9323",
"G. c #FB9B27",
"H. c #FB942B",
"J. c #E68A38",
"K. c #FB8935",
"L. c #E4993D",
"P. c #FA9A33",
"I. c #D8AD32",
"U. c #EDA926",
"Y. c #FCA42B",
"T. c #FBA928",
"R. c #FCB32C",
"E. c #FBB82B",
"W. c #E7A43E",
"Q. c #FAA637",
"!. c #FCAB33",
"~. c #FCB333",
"^. c #FCBC33",
"/. c #FCB43A",
"(. c #FBBB3B",
"). c #EFD81D",
"_. c #FDE51B",
"`. c #FEE91D",
"'. c #DBC825",
"]. c #DBCB37",
"[. c #FDC52E",
"{. c #E8D22A",
"}. c #F1DB22",
"|. c #FDC534",
" X c #FCC839",
".X c #FCD33B",
"XX c #F7E324",
"oX c #FFEB22",
"OX c #F3E23B",
"+X c #9E9043",
"@X c #A88646",
"#X c #B28C48",
"$X c #B99649",
"%X c #A98C55",
"&X c #B88954",
"*X c #B99756",
"=X c #BC9C54",
"-X c #BEA159",
";X c #8F876C",
":X c #AE9368",
">X c #BBA165",
",X c #C99944",
"<X c #D89844",
"1X c #D0904A",
"2X c #C78C5A",
"3X c #C79958",
"4X c #E79743",
"5X c #E39C42",
"6X c #F39743",
"7X c #C5A24C",
"8X c #DBA247",
"9X c #C3A358",
"0X c #E4A242",
"qX c #ECA543",
"wX c #EAAB43",
"eX c #E6A949",
"rX c #EDB249",
"tX c #F7B847",
"yX c #F1AF51",
"uX c #CA9966",
"iX c #D29D62",
"pX c #C7A866",
"aX c #CCAB6C",
"sX c #D5A365",
"dX c #DBAB65",
"fX c #D8A867",
"gX c #D4A56B",
"hX c #D6AA6C",
"jX c #DAAD6B",
"kX c #CBB169",
"lX c #DDB36C",
"zX c #C8AC76",
"xX c #D6AD72",
"cX c #CCB37A",
"vX c #DAB273",
"bX c #D9B877",
"nX c #E1AF66",
"mX c #E1B569",
"MX c #E3BA6E",
"NX c #E2BC73",
"BX c #E1BE7B",
"VX c #FBC744",
"CX c #E9D84B",
"ZX c #FBD446",
"AX c #E0CF56",
"SX c #E5C673",
"DX c #EEE274",
"FX c #CFB78F",
"GX c #D3BA87",
"HX c #DAC38A",
"JX c #EEE58D",
"KX c #D5CCB4",
"LX c #E7DBAB",
"PX c #E7E5D3",
"IX c #F4F3E9",
"UX c #FAFBF9",
/* pixels */
"} .... .*.{  .] ( 5 ^ ] E ! ~ W ( ( 4 _ ~ E R R _ ( / 4 _ ! ^ ! ^ } ) / ^ *._ ..^ 1.*.&.( ;.=.;.;.4.k.>.>.<.k.k.#X<.-X$X@Xk.%XcX",
"=.*.@.=.;./ ( 9 ( ( ) 0 4.*.9 ~ / ) ( ) ) 4.@.^ / / } @.@.) 3.@.( ) @.) %.@.1.;./ *.#.&.;.>.<.$X*.<.<.:.<.+X<.*X#X<.%Xy.y.@X<.>X",
"5 ;.@X0  .R | | R 5 ^ R ^  .W  ._ E ^ W 5 X.^ _ _ ' _  .^ ^ O.^  .X. ._ X.^ X.X. .1.3.*.;.7.3.$X4.#X*X3Xk.#X@X#X=X%X>X>X%Xf.0 kX",
"9 >.GX@X6 T E W T T T T T T T E E T T E T T R E Q E W Q Q Q Q Q Q ' Q _ _ ' _ _ ' o.+.X.O.g.3.g.g.l.z.h.h.z.l.$Xz.z.9X$X0 0 0 >X",
"2.&.FXcX6 6 4 3 3 3 , , , > > > , > , > , , , , , , , , , 4 , 3 , 3 4 , , 4 4 4 4 4 T R T R ^ W ] ] ] ] ....*.=.=.-.g.-.0 0 8 kX",
"g.7.GXcXE <.B.C.,XC.,X,X,XB.1XB.B.w.q.q.B.B.B.B.m.m.m.m.M.M.m.M.M.m.w.m.V.M.M.M.m.m.m.m.m.m.m.M.B.m.m.V.C.C.C.<X8Xz.g.g.*.-.7 kX",
"W *.pX-X6 9X6XK.K.K.K.K.6X6X6X6XyXyXyXtXtXtXwXQ.Q./.!.!.!.|.(./.R.!.Y.^.VX|.|. X X/.~.G.F.H.Y./.^.(./.tXtXtX(./.tXI.-.=.0 k.< %X",
"X.7.GX=X6 9XyXtX/.(.tXtXtXtXtXVXtXtXtXVX(.tX X^.(.(./.(.(.(. X XVXZXZXZXZX.X.X X X X|.^.^. X|.|.ZX X X/.(.tXVXVX X8Xo.=.4 0 0 +X",
"' k.HX-XT 9XqXQ.Q.Q.!.!.!.!.Y.Q.Q.Q.P.P.H.H.S.S.F.G.D.Y.Y.Y.H.H.P.H.S.S.A.S.H.H.G.Y.R.R.R.R.R.^.^./.!.!.G.P.P.!.(.I.=.=.9 9 9 @X",
"o.<.zX-X6 3XJ.r.S.S.S.H.P.A.H.P.Q.Q.P.H.A.S.D.A.F.G.F.c.0.8.8.8.8.8.8.r.r.c.0.9.9.S.A.A.F.v.T.R.Y.!.Y.Y.Y.G.c.S.S.Z.=.o.] 0 < -X",
"X.-.kX-X6 3X6XP.P.P.K.K.r.r.e.K.S.S.r.r.r.9.9.9.r.0.r.0.0.S.A.P.!./.(.^.[.[.[.[.E.R.E.|.[..X.X[.|..X[.R.^.~.n.v.Y.W.=.o.9 9 8 k.",
"4 ;.bX=X6 =XrXVX XVXZXZXVXVXVXVXtX X/./.!.!.!.~.R.R.E.E.E.^. XVX X^.^.[.[..X.X.X.X.X.X.X|.[.E.E.T.R.T.T.T.T.T.[..XI.o.o.6 -.0 $X",
"^ @.bX9X6 =XL.Q.P.P.H.Y.Q.Y./.^.^.^.[. X|.[.[.[.|.E.E.~.^. X XZXZXZXZX.X.X X|.R.T.G.F.v.A.v.v.v.v.v.v.F.v.D.T.v.R.I.o. .9 9 7 @X",
"h.*.zXpX6 3XS.r.r.8.r.9.r.8.r.r.c.0.c.c.F.Y.T.R.^.^.(.|.(. XtX(./.P.G.v.A.c.0.c.c.c.n.n.n.T.E.U.n.U.U.U.E.[.T.Y.~.I.o. .[ *.7 $X",
"+.;.pX9X6 =XJ.A.F.F.F.D.N.N.J.D.n.n.v.G.c.9.9.9.9.9.9.0.0.0.0.r.c.A.c.c.v.v.v.v.D.N.z.h.<.G u S Z Z V Z n A H :.l.l.o.[ X.<.3 #X",
") *.pX$X6 9XZ.C.i.G Z n n m Z A S <.z.Z.D.T.T.T.T.v.T.n.n.G.T.U.U.I.C.l.<.t.S V n z a p s s p s s g g g d d s g j n o. .5 -.7 +X",
"+.k.HX3X6 =XF B v h j d d d d s s d k x V Z D D S G y y S S D Z Z x x d d d d d s i p j j d j j j c c c v N N N c m *.[ 5 0 %.k.",
"X.7.pX9X6 $X1 J : : J A P Z Z Z Z L L I L I P P L I I P P J I U U U A U U K U U P Z x v v v v v c j g d N N N N c m o.' ~ %.7 <.",
"2.7.*X9XT 3Xq u.: 1 hXmXdXdXjXjXhXxXxXxXvXvXvXbXvXvXbXBXNXBXvXzX;Xs.L x M L M M x l a k v v v v c c g g c N N N c m *. .~ { 7 $X",
"| 4.cX9XT =XX .   . i.mXmXNXNXMXmXNXMXMXNXMXNXNXNXNXNXNXNXBXbXzX:Xs.s.u.Y U M d j d i p f k f f c g g g j j v k j V *.o.~ %.0 k.",
"5 ;.aX=XT 9XX .     t.MXlXMXMXmXMXmXMXNXNXMXMXMXSXmXSXMXNXbXGXGXFXzX:X;Xu.L B v d i i i i p s d d s d d s f d N U y.o.o.~ *.{ k.",
"X.@.cX-XT 9X1 1     e t.K K K K u.u.u.u.s.s.u.s.;XY K F A F F F L B B N v c d j j p p p j d s i i i i p z A s.:XxX&X=.o.9 ( 7 @X",
"h.7.zXpXT pXr q   . l l t S n k j d k v v v k j g g k Z f.x.'.].].].%XF j c c j h a j j j f f a x A Y :XpXfXjXvXuX&X=.=...-.7 z.",
"o.7.aX9XT pX<.7 . & e 1 #.e C S D M v j d j j j j k f.XXoXoXoXoXXXoXoXXXf.x d f f f j h x M J s.uXuXgXlXvXfXlXgX2Xp.=.=...k.3 @X",
"1.@XzX3XW sX<X>.. X y :.#.e C V C G t.S M v k j d Z XX`.oX`.`.`.oXoX`.XX`.f.k g h j k L s.:XiXgXgXvXxXhXhXgXhXgX2Xp.=.g.5 &.8 +X",
"2.9XBX=XE pX8XZ.<.k.<X1Xp.G l V C b 1 y 6.y.F m j V ).oXoXCXJXJXJXCXOXDXJXDX;Xh h j J uXuX2XfXjXjXlXhXsXjXlXxXlXxX&X-.h.! 9 0 <.",
"O.@X=X-X` kX8X0XwXeXeXeX<Xq.>.b z e C V l D q.5.t.A j.`.CXPXIXIXUXIXLXUXUXUXPXB d L uXgXuXuXdXiXdXvXhXvXlXlXvXbXlX&X=.h.*.0 7 #X",
"g.k.zX9XQ pX0XW.8XeXwX8X4Xw.w.q.t ; p e t S 5.q.5.I.x.{.].LXIXUXUXPXDXDXJXIXKXB d J 2XuXuXxXgXfXnXxXhXbXvXlXvXlXMXuXo.h.( 0 8 $X",
"^ @XcX7X` kX0X<X0XwXW.wXW.L.w.w.q.i.l ; l e 5.h.b.).).).b.{.AXAXCXOXXX).{.OXj.n f D 2XuXgXgXiXfXxXgXxXvXvXvXvXvXmX3X1.h.( *...z.",
"_ >.cX=X` aX8X8X0XW.W.wXeXW.L.V.w.w.q.G ; l $.I.)._.b.b.).'.'.{.XX`.`.`.XX`.}.x.l l &X2XuXiX2XiXiXuXxXxXgXlXjXhXnX3X=.h.~ 0 9 %X",
"h.>.GXpXQ sX8XZ.qX0XW.0XyX<XwX5X4Xw.w.w.p.1 $.N._._._._.[ X S u.>XkXAXCXCXOX}.x.a p t.2X2X2X2XiXiX2XgXgXfXfXjXfXnX3X2.z.{ %.8 =X",
"B.@XFXaX` kXrXZ.0XL.W.Z.qX5XqXqX<X4X1Xw.w.5.$.;.'.).'.j.1 #.d.d.uX2Xk.].OX].b.4.D l z t.2X2X2X2XiXiXsXgXhXfXjXsXdX1X=.z.o.-.7 =X",
";.i.GX-X' aXrX<XZ.W.L.L.4X4XL.Q.L.4X4X5.y 1 * = : 2 w t.D D D 7.a.D # r &.q : w.4Xq.y.y i.2X2XuXiXgXgXgXsXfXnXjXnX3X=.z.( -.7 %X",
"3.*XHXpX` aXyXwXV.W.W.L.Z.L.Z.W.W.1Xt : @ @ @ % @ @ w x.j.$Xx.g.r #.t o o o # $.w.e.e.4XV.1X1X1X2XfXfXfXiXsXdXdXnX3Xg.z.8 9 9 %X",
"2.pXGX9X' aXeXtX5X<XW.W.W.W.5X1X#.; % % $ + @ @ @ @ @ * X : : * o & t 1 o o o : y 5.V.J.J.J.L.L.<X8XiXsXiXfXdXdXnX3X3.C.( 9 9 @X",
"1.@XzXpX' aX8XtXwX0XL.W.rXeXl.w - - = = O + O O @ O # O o O o + o o & 1 o o o o p a C 6.1XJ.J.<X0XW.W.8X8XiX3XgXdX3Xg.z.} 9 7 =X",
"O.&XGXpX' aX8XwXrX0XqXL.rX$X: % - - - = % + O O O O O O o o o + + + O # o o # $ : A M k n t.1X0X5XL.L.L.W./.8X<XiX=Xg.,X0 9 0 -X",
"! #XGX9XO.aX<XqXtXeXwXwXB.2 - - @ @ @ @ @ + O + O O O O + + + + + + o o o + + $ $ y <Xu.Z k x G 1X4XL.4X5X5XqXyXwXC.-.=X~ &...-X",
"} :.KX9XO.aXeX0XrXrXeXyXt.- - % % % @ % @ + O O O $ O O $ $ + o + o o o $ $ $ $ $ = 6.yX<X@XA k Z 7.4XL.4XJ.4X5X5X<Xg.7X~ 7 7 -X",
"B.7.FXbX+.cXeXeXrXyXyXeXG - - % % % = % @ $ @ @ $ O O O + + + + + + o $ % % - % % $ e 1X4X5XwX*XH t.4X<XV.<X6X4X4X1Xg.7X&.&.9 kX",
"l.%XFXaX2.aXmXnXyXyXmXwX#X: % - @ $ @ @ @ @ @ @ % + + + o + $ $ + $ $ # = = % - - - 2 1XL.4XJ.qXrX<XqXqX<X5X1X1X4X1Xg.-X*.-.< >X",
";.7.FXpXg.aXlXdXnXNXNXmXsX:XU ; @ @ # @ % = = = % @ @ + + $ % # $ $ ; p e t.e e w n m n t.L.4XV.Z.1XqXqX<X5X<X&Xp.q.h.9X8 ..7 %X",
"z.bXLXpXg.i.1.1.X.1.1.1.1.;.%.7 7 7 7 7 7 7 7 7 7 r 7 7 7 r r 7 r r r r @.3.3.3.3.&.t u y ;.h.5.5.3.h.l.3.l.h.k.p.7.7.9X8 7 0 +X",
"1.*XFXaX+.X.X.X.1.1.1.1.1.1.3.3.2.2.3.g.g.3.4.2.1.1.X. ._ _ _ _ _ Q Q Q _ Q _ _  .' X.o.=.1.3.4.3.k.5.#Xl.#X$X$X,X=X,X-X%.8 8 >X",
"h.@XFX%X6 R R R ! | ^ ! ^ ^ | _ ^ |  .|  . .| | | ` ' | W Q ^ W Q Q ^ | | | _ } X.X.X.X.1.1.2.=.g.g.4.g.l.l.k.l.k.z.l.=.8 7 7 kX",
"%.#Xt.) R R ! ! W W T 4 | 4 5 ( R W Q 4 ! ..5 ! / T _ _ 5 } } R ( /  . .) / 4.) &.*.%.7.;.&.*.<.&.;.&.<.@X<.,.@X,.<.<.%.<.t -.cX",
"5 :.7 ^ %.0 5 @.0 8 8 8 ] %./ 5 @.8 5 0 @...@.8 ^ #.8 8 0 &.) @./ @.@./ @.0 7.%.&.@.>.0 %.&.:.@X:.>.7.:.&.:.:.%X@X<.y.%X:.,.,.zX",
"8 ..5 | |  .R 8 / X.X.~ o. .O.5 / ) +.*.] O.O.X.< %._ O.)  ...=.^ 9 @. .=./ =.*.7.! @.>.k.7.&.k.k.@X@.:.@X-X@X=X=X>X@X:.y.cX>X>X"
};
