/* XPM */
static char *_2220_214dd69c9e43c1ebcb67a2aa796df7c51d7f7c6669a2e78b4d31a4661604351c[] = {
/* columns rows colors chars-per-pixel */
"64 48 244 2 ",
"   c #040201",
".  c #0B0301",
"X  c #0F0907",
"o  c #140503",
"O  c #190707",
"+  c #160805",
"@  c #1A0A06",
"#  c #1B0708",
"$  c #140909",
"%  c #1B0A0A",
"&  c #1E110F",
"*  c #210E07",
"=  c #220D0C",
"-  c #231107",
";  c #23140D",
":  c #240F11",
">  c #241412",
",  c #291615",
"<  c #2D1A14",
"1  c #2B1B1B",
"2  c #311C14",
"3  c #331C19",
"4  c #34231B",
"5  c #3A2518",
"6  c #3C251B",
"7  c #2A1D26",
"8  c #301D24",
"9  c #382825",
"0  c #37292E",
"q  c #2F2430",
"w  c #372A34",
"e  c #452B1C",
"r  c #4C311A",
"t  c #693A05",
"y  c #713E06",
"u  c #633D19",
"i  c #442D25",
"p  c #483326",
"a  c #563926",
"s  c #473839",
"d  c #533A36",
"f  c #6D4105",
"g  c #784706",
"h  c #73460C",
"j  c #75490D",
"k  c #7C4C0C",
"l  c #7E5206",
"z  c #7E500E",
"x  c #6A4415",
"c  c #684516",
"v  c #744A14",
"b  c #794E14",
"n  c #724C19",
"m  c #794C18",
"M  c #7C5215",
"N  c #7C531A",
"B  c #79551B",
"V  c #58442F",
"C  c #65422B",
"Z  c #7A5526",
"A  c #654738",
"S  c #724B35",
"D  c #795738",
"F  c #7F6137",
"G  c #3D3144",
"H  c #453848",
"J  c #493D56",
"K  c #554747",
"L  c #4D425B",
"P  c #534657",
"I  c #544953",
"U  c #675349",
"Y  c #785844",
"T  c #6C5852",
"R  c #7C664E",
"E  c #4E4464",
"W  c #584B69",
"Q  c #594E73",
"!  c #5D5277",
"~  c #645866",
"^  c #755E63",
"/  c #62577A",
"(  c #71656E",
")  c #7B717C",
"_  c #814E08",
"`  c #835306",
"'  c #84540B",
"]  c #875909",
"[  c #8C5C0C",
"{  c #915E0C",
"}  c #835514",
"|  c #855A15",
" . c #8C5B13",
".. c #82561A",
"X. c #845C1B",
"o. c #8B5D1C",
"O. c #925F14",
"+. c #8F600D",
"@. c #93630C",
"#. c #9A6A0E",
"$. c #8D6113",
"%. c #84611C",
"&. c #8C621C",
"*. c #8B681F",
"=. c #946413",
"-. c #966915",
";. c #996915",
":. c #93641B",
">. c #936A1C",
",. c #9A6C1B",
"<. c #95701A",
"1. c #9D711B",
"2. c #A2741D",
"3. c #A6791C",
"4. c #845C23",
"5. c #8A5E23",
"6. c #855C2A",
"7. c #875E33",
"8. c #8B6523",
"9. c #8A6724",
"0. c #8D6A2D",
"q. c #936B24",
"w. c #976B25",
"e. c #946B2C",
"r. c #9D7324",
"t. c #99762A",
"y. c #9B732C",
"u. c #8A6735",
"i. c #936C32",
"p. c #916B39",
"a. c #9B7333",
"s. c #997637",
"d. c #A27523",
"f. c #A47925",
"g. c #A67A27",
"h. c #A47B2A",
"j. c #A87C2B",
"k. c #A37B35",
"l. c #A47A37",
"z. c #AA7C3B",
"x. c #8C6549",
"c. c #986D4B",
"v. c #9B7B46",
"b. c #886A53",
"n. c #946F55",
"m. c #9A7456",
"M. c #A27D42",
"N. c #A6765A",
"B. c #877569",
"V. c #8F796D",
"C. c #AB8227",
"Z. c #AC832B",
"A. c #B3892C",
"S. c #AB8538",
"D. c #B38B38",
"F. c #B9933A",
"G. c #9E8046",
"H. c #9E814A",
"J. c #AA8443",
"K. c #A3844C",
"L. c #A98848",
"P. c #B48C48",
"I. c #B9964A",
"U. c #A88A57",
"Y. c #AA8C5C",
"T. c #B28D56",
"R. c #AE9153",
"E. c #BA9657",
"W. c #BC9B53",
"Q. c #BEA159",
"!. c #9A846C",
"~. c #A88B64",
"^. c #B88469",
"/. c #B6986A",
"(. c #B78E73",
"). c #B09571",
"_. c #BBA16C",
"`. c #C59C4A",
"'. c #C39C53",
"]. c #CE9D54",
"[. c #CAA34B",
"{. c #D4A64C",
"}. c #C2A355",
"|. c #C9A657",
" X c #C2A35B",
".X c #D0A85A",
"XX c #C69D62",
"oX c #C89A78",
"OX c #C6A968",
"+X c #CDB06E",
"@X c #C6AB77",
"#X c #CBB176",
"$X c #CCB47C",
"%X c #D4B87A",
"&X c #665C89",
"*X c #6A618E",
"=X c #6D6698",
"-X c #777193",
";X c #716BA3",
":X c #7774AE",
">X c #7B79B5",
",X c #867688",
"<X c #948B91",
"1X c #AC9890",
"2X c #B0A39C",
"3X c #9B95A8",
"4X c #8483BE",
"5X c #8A88BB",
"6X c #A09EB4",
"7X c #B2AAB1",
"8X c #CAAB8F",
"9X c #D5A988",
"0X c #CCB385",
"qX c #D3BA88",
"wX c #C9B695",
"eX c #D7B697",
"rX c #C4A7A6",
"tX c #C6B6A9",
"yX c #D9B8A9",
"uX c #C3BAB4",
"iX c #DAC389",
"pX c #DCC69A",
"aX c #E3C58B",
"sX c #D9C6A4",
"dX c #D9C2B6",
"fX c #E5CCB6",
"gX c #8A89C5",
"hX c #8B8AC6",
"jX c #918FCD",
"kX c #9493CC",
"lX c #9997CA",
"zX c #9B99D1",
"xX c #A19DCB",
"cX c #B1ABC9",
"vX c #A6A5D2",
"bX c #ADACD3",
"nX c #B8B6D5",
"mX c #C1BBD3",
"MX c #D5CDC7",
"NX c #EAD1C6",
"BX c #E7DBD2",
"VX c #EEE5DD",
"CX c #F2EBE5",
"ZX c #FDF8F3",
/* pixels */
"&.>.<.-.q.X.>.$.X.b  .=.] | ] +.o.o.h [ | ] } ' =.X...k o.} O... .&.5.}  .q. .q.o.r.e.e...y.y.d.y.y.D.a.t.s.S.S.P.S.Q.I.G.G.R.#X",
"r.q.4.r.h...| m ..X.X...t.e.....m o.| 5.o.h.X.} ....o.o.6.O.j...o.o.4.o.5.5.d.y...e.6.8.a.e.i.I.e.a.s.u.s.G.s.R.R.i.R.v.s.L.s.OX",
"k a.v...:.' =.+.] }  ._ O.:.[ =.{ [  . .k ;. .O.O.#.O.O. . .2. .;.,.;.O.:. .;.w.;.d.g.w.y.j.j.`.k.P.E.W.S.R.J.R.W.L.@X_.R.t.B +X",
"M i.qXP.` ` ] ] ` ` ` ` _ ` ` ] [ _ ' ] ] ] ' ] { [  .[ [ [ { { { @.{ O.O.#.{ =.#.,.3.1.2.j.j.j.C.A.I.A.Z.F.D.F.F.D.}.I.B B B _.",
"d.0.wX$X[ l l g g g f y t t t t t t t t t y f f y y y y g g g g h g _ g _ g _ _ ] ] ] ] [ +.@.=.-.-.-.,.<.2.r.C.C.C.C.C.B B n OX",
"C.k.@X$X] s.b j f h h h j j v h b g j h b j b k b b k b b b b b m M } M } ......B 4.N 4.4.4.0.0.0.e.0.e.i.0.s.i.0.p.t.r.<.t.c +X",
"[ e.OXQ.l K.< @ @ @ @ @ @ @ @ @ @ @ @ * @ @ @ @ @ * @ * @ @ * @ @ @ o @ @ @ # @ & 4 d V V r 4 < - % @ @ * * & * $ ; *.C.%.C.c U.",
",.l.qXW.l H.> + o o o o o o o o o o o @ o o o o o o o o o @ o o o o o o o o , d B._._._.qXqX0Xn.9 = % @ o o o o + + B r.j B B H.",
"$.S.iXQ.] H.; o + o o o o o o o o @ o @ o o o @ + o o o o + o o o o o o w ) 7XuX7XuXpXwX#X$X0X).A 8 = = # # o o + + %.1.z B n L.",
"<.S.+XQ.l H.; o o o + o @ o o o o o o o o @ o @ o + o o + o o o o o w ^ 6XnXnXbXvX6X5X<X1X).m.m.n.d 3 : # # o o + + %.1.$.%.c W.",
"#.t.+XQ.l G.; o o + o o @ o o o o @ + + o @ o o + o o o o o o , T -X7XnXnXvXzXjXkX5X>X=X/ ( b.Y N.U 9 : # = # O + @ %.<.M v n S.",
"h y.%XW.l H.; o o o o o o o o + o o o o o o o o o o o o o 9 P <XmXnXbXvXzXzXkXhXgX:X;X*X! E P U @XY A 3 # # # # + @ %.<.M t.%.P.",
" .5.qX[.l H.; o o + o o o o o o o o o o o + o . o o . o w cXnXnXbXbXzXzXjXjX4X4X>X;X=X&X! Q J K _.Y U d : = # = @ - B -.M M c G.",
"A.w.@XOXl H.; o o o o o o o o o . o o o o . . .     X K 3XnXbXbXvXkXhXjXhXgX4X>X;X=X&X&X&XQ L K (.Y Y A 1 = = # @ - M -.$.t.n F.",
"3.y.OX}.l G.; o o o o o o . . . . . o o . . . . . . K nXnXbXvXzXkXjXhX4X4X>X>X:X;X=X&X&XQ W J H ).x.D U 3 : = % * & %.-.*.C.x L.",
"o.e.OXI.` K.; o o @ o o . . .   . . o . . .   . > -XcXnXnXvXvXzXzXkXhXgX>X:X;X;X=X*X&XE E E H w ).x.Y b.0 , % % % - B -.b C.x G.",
"3.S.iX}.` K.; o o o o o o o     . o o   .   . 1 ~ mXnXnXvXvXzXjXjXjX4X>X,X=X=X*X&X&X&XQ E J H w ).~.D b.H 1 % % = ; | -.k B 4.J.",
";.z.OXW.l H.; o o o o o o o o   . . . .   . H 7XmXmXbXbXvXzXzXjXhXjX,X;X;X*X*X&X&X! W W J w 7 9 /./.R R K 4 % % % = %.#.| %.v s.",
"3.l.W. X] K.; o o o o o . . o o . o   . . , ) mXnXbXcXvXzXzXjXjXhXhX>X=X=X&X! W W Q E G q : % 4 _.E.c.!.K s & % = = X.1.| %.c I.",
"$.k.%X X] K.; o o o o o . o . . o     . o I cXcXrXmXxXlXhXgXgX,X>X:X;X&X/ Q W L J J H 7 : # $ 9 pX_.!.wXI ~ 1 % # = X.1...8.| S.",
"k a.+XW.] K.; o o o .     . o o . o   . o 0 2XdXNXNXyXrX2X,X=X=X=X=X&X! ! W W J G q 7 $ % $ $ p iX@X~.yXT ( w % % = X.1.| w.%.S.",
",.5.#X X] U.; o o o o   .   . o .   . . 1 V.NXNXdXyXyXeX9XoXV.^ J E Q Q W W W J G 7 % $ % % % p $X#X/.sXR / I * % - %.1.| N c J.",
"A.l.@XOX] U.; o o o o .   . . .   .   , 7XZXCXCXCXNXBXCXNXyX1XN.S H J J L L J G q 7 % % % % $ p 0XqX/.eX^ ~ / > % = %.3.9.t.n D.",
",.l.OX}.[ U.; .   . o o . . .   .     9 BXZXrXuXBXCXZXZXBXMXyXN.x.S a s H H H w 7 % $ % % % o 9 @XqX^.@X!.I -X7 # = %.f.>.C.x L.",
"r.J.#X'.[ U.;   . . . . . . . . .     . B.yX(.N.N.9XVXVXMXrX8XN.x.C C a r i q 7 > # % % % % $ 4 0XiX#X~.!.I <XI = = %.C.b 9.n v.",
"g.'.iXW.[ U.;   . . o . . . .       $ U 9XyX(.N.N.oX9X9XeX9X9Xn.S C a d d q q : $ % $ % % % + 2 0XaX$X).<X) 2X1X0 = %.Z.| B N k.",
"2.J.W.'.@.Y.; . . . . . . .         1 1XyX9X9X9XoX9X9XoXoXXX(.c.7.S a 8 7 q 7 # $ % % % $ % $ 9 2XpXwX<X3X,XsX7XL % %.A.*.%.x P.",
"C.S.@X X@.Y.; o o . . o o o .         & i C A n.^.^.^.N.N.N.N.m.x.S C 3 $ % # # $ % % $ % $ O G 7XdXuX<X<X) 2X1Xs % X.A.| B n W.",
" .J.qX}.@.R.; o o o o o o                   . , S Y m.N.c.c.c.c.x.x.C p i % o @ $ % % % % + . I 6X6X6X( 9 1 9 , @ @ %.A.| q.>.P.",
"O.i.#X`.@.Y.; o @ o o . o . .   .               o = 9 ~.(.n.b.b.p B.U d ~ K K d i , $ % % @ o 7 G G w 7 % @ X o @ * %.A.X...n I.",
"A.i.qXOX@.U.; o o o o o . o o o . .             . . I 1X2X( R <X!.2XuX7X2XV.B.T d 1 % + $ @ @ @ @ X @ @ @ % % @ @ @ %.F.%.8.n I.",
"F.J.eXOX@.Y.; o o o o o o o o . o                   s ^ 2XMXBXBXtX<XR K 9 5 4 , , = % % % % $ @ @ @ @ @ $ @ @ $ @ * %.F.r.t.x Q.",
"r.M.0X X@.~.: o o . o o o o o .       . . . .       K uXNXpX%XXXM.A V 4 < 2 < < 2 : % % # % % $ $ + % + % + + @ # % *.F.| t.c U.",
"Z.W.pX X-.U.> o o o o o o o       . .   .   .     0 uXqX.X{.{.I.b.V 9 < > ; < 2 2 , % # = % % # % + # % @ + % @ % @ *.F.M B B K.",
"d.OXqX}.#.~.; o o o o o   .   o o o o .   .     X R '.'.{.{.{.I.v.V 2 2 < - < 2 , , = # # @ # # @ % + + + + + o o % *.F.| B B J.",
"g.J.@XOX-.U.> o o o o   o o . o o . . . .     X V L.`.T.I.`.`.`.`.0.5 5 5 2 < < : : # # # @ # # % @ + @ + % + o o % *.`.&.N c Q.",
"2.T.qXOX#.Y.> . o o . o o o   . o o     .     6 m.U.U.T.'.`.`.].`.z.a a u r r 3 , = = O # o @ @ + + % + + + + % + @ *.I...B N Q.",
"} P.qX'.1.~.> o o o o o o .     . . .       . A Y.R.'.|.].T.L.T.P.P.i.u e e e r r 3 = # O # # @ + % @ + + @ + % @ @ 9.[...*.*.Q.",
":.u.sX.X3.Y.: o . o o o o   .   .           3 c.T.].{.{.`.M.v.v.M.M.l.D r 2 6 6 i p 6 , # # # # % # @ % @ + + @ @ @ q.[.M n x Q.",
"D.l.eX0Xg.~.& o o o o o o . . .       .   , M.'.'.`.M.`.M.p.u.x.p.x.l.S 3 2 6 e i a 6 i , = % % % # @ + % + @ + @ @ 9.[.*.9.B +X",
"A.T.eX+XC.Y.& . o o o o o           . . ; c.E.W.`.7.7.z.z.p.7.7.7.l.M.D 5 < e 5 e C 6 9 6 > % $ % + + + X + @ X @ @ *.}.q.t.u Q.",
"w.l.qXOXC.Y.< @ @ @ @ @ * o o . . o o ; u.T.E.`.P.7.7.z.z.i.7.S u.z.l.6.r 2 5 5 u Z V e i 2 = * * @ * - ; - - - - ; q.|.b <.c ~.",
"F.%XfXOXC.l.j j h j j h h h h h h h j m :.o.q.:.o.....o.O.O...} ..O.o.....N ..N ..8.| X.4...X.4.X.5.4.8.9.*.*.9.9.8.t.}.B c B K.",
"f.E.qX+X3.,.1.d.d.f.d.d.d.g.g.g.g.g.h.j.j.d.f.d.2.2.,.;.O.O.O.O.O. .{ O.{ { O.@.;.;.,.,.d.f.h.j.Z.S.S.D.F.P.I.W.W.[.Q.}.%.B n Q.",
"Z.J.0XU.k ] ' ' ] =. . . . .O.=.[ -.-.=.:.:.=.=.=.=.=.@. .[ [ =.{ {  .;.:.O.=.:.;.,.;.r.d.d.g.f.j.j.h.Z.S.A.A.A.D.F.D.t.n c c #X",
">.R.c.o.] } } b [  .' h =.k k  .' [ [ k } ;.b ' ..' O.{ k &.&.' ....O.:.o...h.5.q.e.&.a.h.8.e.a.9.y.e.s.G.S.p.L.t.t.s.9.s.Z t.%X",
"b u.x o.:.Z M X.N v m n $.%.b b 4.m m m 4.:.4.b ..6.m b Z &.&.4...5.4...4.Z d.9.6.8.p.4.6.u.u.S.0.0.s.p.Z s.u.R.K.p.G.G.0.F F +X",
"M >.k -.$.;.| h ..,.;.} 2.>.2.b ..o.3.w.=.d.2.,.h 5.O.2.&.=.:.r. ...6.O.d...d.w.j.N 6.0.Z.s.0.S.J.S.6.p.L.Q.G.Q.Q._.R.u.H.$X_.Q."
};
